<mxfile host="app.diagrams.net" modified="2023-06-29T12:24:18.561Z" agent="Mozilla/5.0 (Macintosh; Intel Mac OS X 10_15_7) AppleWebKit/537.36 (KHTML, like Gecko) Chrome/114.0.0.0 Safari/537.36" version="21.5.2" etag="O09xSQ-hsPV26PkIZr4F" type="github">
  <diagram name="第 1 页" id="5au4i6EE6E-Eis2ZUj2O">
    <mxGraphModel>
      <root>
        <mxCell id="0" />
        <mxCell id="1" parent="0" />
      </root>
    </mxGraphModel>
  </diagram>
</mxfile>
